<svg width="132" height="137" viewBox="0 0 132 137" fill="none" xmlns="http://www.w3.org/2000/svg">
<g filter="url(#filter0_d_21_5383)">
<circle cx="63.3945" cy="64.4909" r="18.3945" fill="#090E16"/>
</g>
<path d="M70.2761 61.2556C70.0616 61.1818 69.8394 61.112 69.6106 61.0459C69.6482 60.8924 69.6827 60.7409 69.7134 60.592C70.2172 58.1465 69.8878 56.1764 68.763 55.5277C67.6844 54.9058 65.9206 55.5543 64.1391 57.1046C63.9678 57.2537 63.796 57.4115 63.6243 57.5769C63.5099 57.4675 63.3957 57.3617 63.2817 57.2605C61.4147 55.6028 59.5434 54.9042 58.4197 55.5548C57.3422 56.1785 57.0231 58.0306 57.4765 60.3483C57.5203 60.5721 57.5715 60.8007 57.6294 61.0331C57.3646 61.1083 57.1089 61.1885 56.8642 61.2737C54.6754 62.0369 53.2775 63.2329 53.2775 64.4735C53.2775 65.7548 54.7781 67.0399 57.058 67.8191C57.2379 67.8806 57.4246 67.9388 57.617 67.994C57.5545 68.2454 57.5002 68.4917 57.4546 68.732C57.0222 71.0094 57.3599 72.8177 58.4345 73.4376C59.5445 74.0777 61.4075 73.4197 63.2215 71.834C63.3648 71.7087 63.5087 71.5758 63.6529 71.4365C63.8397 71.6164 64.0263 71.7866 64.2118 71.9464C65.9689 73.4584 67.7043 74.0689 68.7779 73.4474C69.8868 72.8054 70.2472 70.8628 69.7793 68.4994C69.7436 68.3189 69.702 68.1345 69.6553 67.9468C69.7862 67.9081 69.9146 67.8682 70.0398 67.8267C72.41 67.0414 73.952 65.7719 73.952 64.4735C73.952 63.2284 72.5091 62.0243 70.2761 61.2556ZM69.7621 66.9883C69.649 67.0257 69.533 67.0619 69.4148 67.097C69.1532 66.2686 68.8 65.3878 68.3679 64.4778C68.7803 63.5894 69.1197 62.7199 69.3741 61.8969C69.5856 61.9581 69.7908 62.0226 69.9886 62.0908C71.9018 62.7494 73.0688 63.7231 73.0688 64.4735C73.0688 65.2727 71.8085 66.3102 69.7621 66.9883ZM68.9129 68.6709C69.1198 69.716 69.1494 70.6609 69.0123 71.3995C68.8892 72.0633 68.6416 72.5058 68.3354 72.683C67.6838 73.0602 66.2905 72.5699 64.7878 71.2768C64.6155 71.1286 64.442 70.9703 64.268 70.8028C64.8505 70.1657 65.4327 69.425 66.001 68.6024C67.0004 68.5137 67.9447 68.3687 68.801 68.1708C68.8432 68.3409 68.8806 68.5078 68.9129 68.6709ZM60.3259 72.6179C59.6893 72.8427 59.1823 72.8491 58.8758 72.6724C58.2237 72.2963 57.9526 70.8443 58.3224 68.8967C58.3648 68.6737 58.4152 68.4445 58.4733 68.2103C59.3202 68.3976 60.2576 68.5324 61.2594 68.6136C61.8315 69.4185 62.4305 70.1584 63.0342 70.8062C62.9023 70.9336 62.7709 71.0548 62.6403 71.169C61.8381 71.8702 61.0343 72.3677 60.3259 72.6179ZM57.3436 66.9834C56.3355 66.6389 55.503 66.191 54.9323 65.7024C54.4195 65.2632 54.1606 64.8272 54.1606 64.4735C54.1606 63.7206 55.283 62.7604 57.1549 62.1078C57.3821 62.0286 57.6198 61.9539 57.8666 61.8838C58.1253 62.7254 58.4647 63.6052 58.8742 64.495C58.4594 65.3979 58.1152 66.2918 57.8539 67.1432C57.678 67.0926 57.5076 67.0394 57.3436 66.9834ZM58.3433 60.1786C57.9548 58.193 58.2128 56.695 58.8622 56.3192C59.5538 55.9187 61.0833 56.4897 62.6953 57.921C62.7983 58.0125 62.9018 58.1082 63.0055 58.2073C62.4048 58.8523 61.8113 59.5866 61.2443 60.3868C60.2719 60.4769 59.3412 60.6217 58.4854 60.8156C58.4316 60.5992 58.384 60.3865 58.3433 60.1786ZM67.2614 62.3807C67.0568 62.0274 66.8468 61.6824 66.6327 61.3468C67.2923 61.4302 67.9243 61.5409 68.5179 61.6763C68.3397 62.2474 68.1176 62.8445 67.8562 63.4566C67.6686 63.1006 67.4703 62.7416 67.2614 62.3807ZM63.6246 58.8385C64.032 59.2799 64.44 59.7726 64.8412 60.3073C64.4369 60.2882 64.0275 60.2782 63.6148 60.2782C63.2059 60.2782 62.7996 60.2879 62.3977 60.3067C62.7994 59.777 63.2109 59.2849 63.6246 58.8385ZM59.9646 62.3869C59.7602 62.7412 59.5655 63.0982 59.3809 63.4559C59.1237 62.846 58.9037 62.2462 58.724 61.667C59.3138 61.535 59.9429 61.4271 60.5983 61.3453C60.3812 61.6839 60.1695 62.0315 59.9646 62.3868V62.3869ZM60.6172 67.6647C59.94 67.5891 59.3015 67.4868 58.7118 67.3584C58.8944 66.7689 59.1193 66.1563 59.3819 65.5332C59.567 65.8906 59.7624 66.2478 59.968 66.6029H59.9681C60.1775 66.9647 60.3945 67.3191 60.6172 67.6647ZM63.6491 70.1707C63.2304 69.719 62.8129 69.2194 62.4051 68.682C62.801 68.6976 63.2046 68.7055 63.6148 68.7055C64.0362 68.7055 64.4527 68.696 64.8628 68.6778C64.4602 69.2249 64.0537 69.7252 63.6491 70.1707ZM67.8646 65.5014C68.1409 66.1313 68.3739 66.7407 68.5588 67.3201C67.9594 67.4569 67.3122 67.567 66.6303 67.6489C66.8449 67.3088 67.0567 66.9578 67.2649 66.5969C67.4755 66.2317 67.6755 65.8659 67.8646 65.5014ZM66.4999 66.1556C66.1767 66.716 65.8449 67.2509 65.5081 67.7559C64.8946 67.7997 64.2607 67.8223 63.6148 67.8223C62.9714 67.8223 62.3455 67.8023 61.7429 67.7632C61.3925 67.2517 61.0535 66.7151 60.7324 66.1604H60.7324C60.4122 65.6073 60.1174 65.0494 59.8503 64.4947C60.1173 63.9387 60.4113 63.3802 60.7297 62.828L60.7297 62.8281C61.049 62.2744 61.385 61.7405 61.7322 61.2322C62.347 61.1857 62.9775 61.1614 63.6147 61.1614H63.6148C64.2548 61.1614 64.8861 61.1859 65.5008 61.2328C65.8427 61.7374 66.1764 62.2696 66.497 62.8233C66.8211 63.3833 67.1189 63.938 67.3882 64.4821C67.1197 65.0356 66.8226 65.5959 66.4999 66.1556ZM68.3218 56.2929C69.0142 56.6921 69.2834 58.3023 68.8484 60.4137C68.8207 60.5484 68.7894 60.6857 68.7555 60.8247C67.8977 60.6268 66.9663 60.4796 65.9911 60.3881C65.4231 59.5791 64.8344 58.8436 64.2435 58.2069C64.4023 58.0541 64.561 57.9083 64.719 57.7708C66.2453 56.4425 67.6719 55.9181 68.3218 56.2929ZM63.6148 62.6273C64.6343 62.6273 65.4609 63.4538 65.4609 64.4735C65.4609 65.4931 64.6343 66.3196 63.6148 66.3196C62.5952 66.3196 61.7686 65.4931 61.7686 64.4735C61.7686 63.4538 62.5952 62.6273 63.6148 62.6273Z" fill="#7B4AE2" fill-opacity="0.5"/>
<defs>
<filter id="filter0_d_21_5383" x="-5" y="0.0963745" width="136.789" height="136.789" filterUnits="userSpaceOnUse" color-interpolation-filters="sRGB">
<feFlood flood-opacity="0" result="BackgroundImageFix"/>
<feColorMatrix in="SourceAlpha" type="matrix" values="0 0 0 0 0 0 0 0 0 0 0 0 0 0 0 0 0 0 127 0" result="hardAlpha"/>
<feOffset dy="4"/>
<feGaussianBlur stdDeviation="25"/>
<feComposite in2="hardAlpha" operator="out"/>
<feColorMatrix type="matrix" values="0 0 0 0 0 0 0 0 0 0 0 0 0 0 0 0 0 0 0.5 0"/>
<feBlend mode="normal" in2="BackgroundImageFix" result="effect1_dropShadow_21_5383"/>
<feBlend mode="normal" in="SourceGraphic" in2="effect1_dropShadow_21_5383" result="shape"/>
</filter>
</defs>
</svg>
