<svg width="132" height="137" viewBox="0 0 132 137" fill="none" xmlns="http://www.w3.org/2000/svg">
<g filter="url(#filter0_d_21_5380)">
<circle cx="69.1801" cy="64.3969" r="18.3945" fill="#090E16"/>
</g>
<g clip-path="url(#clip0_21_5380)">
<path fill-rule="evenodd" clip-rule="evenodd" d="M76.9403 55.1996H61.42C60.6263 55.1996 59.9829 55.843 59.9829 56.6367V72.157C59.9829 72.9507 60.6263 73.5941 61.42 73.5941H76.9403C77.734 73.5941 78.3774 72.9507 78.3774 72.157V56.6367C78.3774 55.843 77.734 55.1996 76.9403 55.1996ZM70.7982 71.589V69.6044C71.1581 69.9063 71.5492 70.1326 71.9713 70.2835C72.3934 70.4345 72.8195 70.5099 73.2499 70.5099C73.5023 70.5099 73.7227 70.4872 73.9109 70.4417C74.0992 70.3962 74.2565 70.3332 74.3826 70.2526C74.5088 70.1719 74.603 70.0768 74.665 69.9673C74.7271 69.8577 74.7581 69.7388 74.7581 69.6107C74.7581 69.437 74.7085 69.282 74.6092 69.1455C74.5099 69.0091 74.3744 68.883 74.2026 68.7672C74.0309 68.6514 73.8271 68.5399 73.5912 68.4324C73.3554 68.3248 73.1009 68.2153 72.8278 68.1036C72.1326 67.8142 71.6144 67.4607 71.273 67.0431C70.9316 66.6255 70.7609 66.1211 70.7609 65.5299C70.7609 65.0668 70.8541 64.6689 71.0402 64.3361C71.2265 64.0032 71.4799 63.7293 71.8006 63.5143C72.1213 63.2993 72.4927 63.1411 72.9147 63.0399C73.3368 62.9386 73.7837 62.8879 74.2554 62.8879C74.7188 62.8879 75.1296 62.9158 75.4875 62.9716C75.8454 63.0275 76.1754 63.1133 76.4775 63.229V65.0833C76.3285 64.98 76.166 64.889 75.9902 64.8105C75.8143 64.7319 75.6333 64.6668 75.4472 64.6151C75.2609 64.5634 75.0757 64.5252 74.8916 64.5004C74.7075 64.4756 74.5327 64.4632 74.3671 64.4632C74.1396 64.4632 73.9326 64.4849 73.7465 64.5283C73.5602 64.5717 73.403 64.6327 73.2747 64.7113C73.1465 64.7898 73.0471 64.8839 72.9768 64.9934C72.9064 65.103 72.8713 65.226 72.8713 65.3624C72.8713 65.5113 72.9106 65.6446 72.9892 65.7624C73.0678 65.8803 73.1795 65.9919 73.3244 66.0973C73.4692 66.2028 73.6451 66.3061 73.8519 66.4075C74.0589 66.5088 74.2926 66.6131 74.5533 66.7207C74.9092 66.8695 75.2289 67.0276 75.5123 67.195C75.7957 67.3625 76.0389 67.5517 76.2416 67.7625C76.4443 67.9734 76.5995 68.2142 76.7071 68.485C76.8147 68.7558 76.8685 69.0711 76.8685 69.4308C76.8685 69.927 76.7744 70.3435 76.5861 70.6804C76.3978 71.0174 76.1423 71.2903 75.8195 71.4991C75.4968 71.7079 75.1212 71.8578 74.693 71.9487C74.2647 72.0397 73.8126 72.0852 73.3368 72.0852C72.8485 72.0852 72.384 72.0439 71.9434 71.9612C71.5027 71.8785 71.1209 71.7544 70.7982 71.589ZM70.0424 64.6657H67.4903V71.9415H65.4685V64.6657H62.9289V63.0316H70.0424V64.6657Z" fill="#7B4AE2" fill-opacity="0.5"/>
</g>
<defs>
<filter id="filter0_d_21_5380" x="0.785645" y="0.00234985" width="136.789" height="136.789" filterUnits="userSpaceOnUse" color-interpolation-filters="sRGB">
<feFlood flood-opacity="0" result="BackgroundImageFix"/>
<feColorMatrix in="SourceAlpha" type="matrix" values="0 0 0 0 0 0 0 0 0 0 0 0 0 0 0 0 0 0 127 0" result="hardAlpha"/>
<feOffset dy="4"/>
<feGaussianBlur stdDeviation="25"/>
<feComposite in2="hardAlpha" operator="out"/>
<feColorMatrix type="matrix" values="0 0 0 0 0 0 0 0 0 0 0 0 0 0 0 0 0 0 0.5 0"/>
<feBlend mode="normal" in2="BackgroundImageFix" result="effect1_dropShadow_21_5380"/>
<feBlend mode="normal" in="SourceGraphic" in2="effect1_dropShadow_21_5380" result="shape"/>
</filter>
<clipPath id="clip0_21_5380">
<rect width="18.3945" height="18.3945" fill="white" transform="translate(59.9829 55.1996)"/>
</clipPath>
</defs>
</svg>
